<svg width="20" height="21" viewBox="0 0 20 21" fill="none" xmlns="http://www.w3.org/2000/svg">
<path d="M7.50215 9.82096C8.54703 9.76081 9.43405 8.85857 9.47915 7.80971L9.80991 0.39626L8.84772 0.862419L7.32174 5.8586C7.03609 6.79092 6.28062 7.54655 5.35226 7.82099L0.421033 9.29465L0.221829 10.2383L7.50215 9.82096Z" fill="white"/>
<path d="M12.4746 9.82096L19.755 10.2383L19.5558 9.29465L14.6245 7.82099C13.6962 7.54279 12.9407 6.79092 12.6551 5.8586L11.1291 0.862419L10.1669 0.39626L10.4976 7.80971C10.5428 8.85857 11.4335 9.76081 12.4746 9.82096Z" fill="white"/>
<path d="M7.52465 11.2269L0.244321 10.772L0.439766 11.7156L5.36348 13.2156C6.29184 13.4976 7.03979 14.2532 7.32168 15.1893L8.82511 20.193L9.78354 20.6629L9.49037 13.2494C9.44903 12.2006 8.56577 11.2946 7.52089 11.2269H7.52465Z" fill="white"/>
<path d="M12.6553 15.2156C12.9447 14.2833 13.7039 13.5352 14.6323 13.2607L19.5748 11.8096L19.7778 10.866L12.4937 11.2495C11.4488 11.3059 10.558 12.2044 10.5054 13.2532L10.1371 20.6667L11.103 20.208L12.6553 15.2194V15.2156Z" fill="white"/>
</svg>
